<svg version="1" xmlns="http://www.w3.org/2000/svg" width="5413.333" height="5413.333" viewBox="0 0 4060.000000 4060.000000"><path d="M2138 742.7c-17 .3-50.8 2.2-73 3.9-174.9 13.6-306.4 60.7-404.5 144.9-42.9 36.8-79.9 81.6-113.3 137.2-22.9 38.1-39.5 72.1-78 159.8-15.8 36-32.3 71.5-33.2 71.5-.3 0-4.7-10.7-9.9-23.8-65.4-165-131.2-269.9-216-344.5-68.4-60.2-147.2-99.6-247.5-123.7-112-26.9-267.1-32.6-385.1-14-198.7 31.2-349.9 126.7-448.2 283-61.4 97.7-100.6 219.4-114.3 355-4.4 44-5.4 64.6-5.4 116.5 0 48.6.7 69 4 108 27.7 334.6 176.1 687.4 403.8 960 18.3 21.9 40.5 47 58.6 66.4 7.4 8 86 83.4 174.7 167.7l161.1 153.3 14.9 7.5c34.4 17.4 65 36 133.3 81 71.1 46.8 88.2 57.2 147 90.1 14.6 8.1 51.5 29.1 82 46.5 90.5 51.6 112.7 63.8 138.1 75.5 40.8 18.9 65.8 26 96.4 27.2 48.6 1.9 98.5-15.3 203.5-70.2 155.9-81.4 230.2-124.4 310-179.5 195.8-135.2 374.5-291.7 508.1-445 110.4-126.7 190.9-252.5 238.8-372.7l6.1-15.3-106.1-216.2c-118.5-241.5-146.6-298.1-153.9-309.2-4.9-7.5-5.2-7.8-14.3-12-5-2.4-12-6.4-15.5-9-4.1-3.1-6.4-4.2-6.7-3.4-.3.7-83.5 227.9-185 504.8s-184.8 504.1-185 504.9c-.4.9-2 0-5.4-3.2-2.6-2.5-6.6-5.4-8.9-6.6-6.2-3.2-9.5-8-20.8-31.1-10.4-21-11.2-23.2-37.4-100.6-14.8-43.5-31.9-95-38-114.5-6.1-19.5-14.9-46.9-19.5-60.9s-11.7-36.1-15.9-49c-8.5-26.4-18.6-48.5-27.6-60.2-2.8-3.8-9.8-10.9-15.6-15.9l-10.4-9-2.3 5.3c-16 36-107.1 238.5-107.6 239-.7.9-41.2 2.4-100.1 3.9-23.9.6-125.2 1.4-225 1.9-139.8.7-192.6 1.3-230 2.6-70 2.5-195.8 2.6-222.8.1-41.1-3.7-67.7-10.2-75.3-18.3-3.8-4.1-11.5-25.9-16-45.4-3-13.4-3.7-35.1-1.5-45.4 6.7-29.7 30.5-47 74.8-54 26.1-4.2 77.8-4.5 141.8-.9 28.5 1.6 50.2 1.8 230.5 1.6 109.5-.1 225.7-.5 258.4-.9l59.3-.6 5-10.7c16.2-34.4 35.9-81.7 76.4-184 69.9-176.4 93.2-231.9 119.3-284.1 10.1-20.3 24.6-46 26-46 .3 0 44.3 95 97.6 211 53.4 116 97.2 211 97.5 211 .3 0 78.6-214 174-475.5s173.7-475.5 174-475.5c.3 0 90.5 163.1 200.5 362.5S2778.7 1978 2779 1978c1.8 0 21.4-36.2 29.8-55 49.2-110.2 67.1-257.4 53.2-437-8.2-105.9-30-232.4-59-342.9l-6.1-23.4-17.3-24.6c-30.1-42.9-51.2-71.2-75.7-101.6-96.4-119.9-193-188.3-315.4-223.3-55.7-16-113.5-24.5-185.5-27.2-23.7-.9-35.7-1-65-.3zM2841.4 2174.6c-19.1 13.7-31.2 25.8-41.6 41.4-4.8 7.3-17.3 32-35.3 69.7l-8.7 18.3 5.5 15.7c45.9 131.7 124.3 302.6 185.5 404.3 14.5 24.1 39 61.3 44.3 67.4 2.1 2.3 27-21.8 43.9-42.5 38.3-46.8 73.2-100.1 160-244.1 14.7-24.4 15.7-25.7 18.5-25.8 30.6-.3 771.9-15.1 772.2-15.4.4-.3-5.8-105.2-7.3-123.8l-.6-7.7-5-1.1c-24.1-5.1-80.7-10.8-140.8-14-85.1-4.6-227.7-6.7-348-5.1-138.8 1.8-237.1 4.8-315.5 9.6-26.7 1.7-57.7 4.3-58.3 5-.3.2-23.3 31.6-51.2 69.7-27.9 38-51.1 69.3-51.6 69.5-.5.1-36-66.6-78.8-148.2-42.8-81.7-78.2-148.5-78.6-148.5-.5 0-4.3 2.5-8.6 5.6z"/></svg>