<?xml version="1.0" standalone="no"?>
<!DOCTYPE svg PUBLIC "-//W3C//DTD SVG 20010904//EN"
 "http://www.w3.org/TR/2001/REC-SVG-20010904/DTD/svg10.dtd">
<svg version="1.0" xmlns="http://www.w3.org/2000/svg"
 width="4060.000000pt" height="4060.000000pt" viewBox="0 0 4060.000000 4060.000000"
 preserveAspectRatio="xMidYMid meet">
<metadata>
Created by potrace 1.11, written by Peter Selinger 2001-2013
</metadata>
<g transform="translate(0.000000,4060.000000) scale(0.100000,-0.100000)"
fill="#000000" stroke="none">
<path d="M21380 33173 c-170 -3 -508 -22 -730 -39 -1749 -136 -3064 -607
-4045 -1449 -429 -368 -799 -816 -1133 -1372 -229 -381 -395 -721 -780 -1598
-158 -360 -323 -715 -332 -715 -3 0 -47 107 -99 238 -654 1650 -1312 2699
-2160 3445 -684 602 -1472 996 -2475 1237 -1120 269 -2671 326 -3851 140
-1987 -312 -3499 -1267 -4482 -2830 -614 -977 -1006 -2194 -1143 -3550 -44
-440 -54 -646 -54 -1165 0 -486 7 -690 40 -1080 277 -3346 1761 -6874 4038
-9600 183 -219 405 -470 586 -664 74 -80 860 -834 1747 -1677 l1611 -1533 149
-75 c344 -174 650 -360 1333 -810 711 -468 882 -572 1470 -901 146 -81 515
-291 820 -465 905 -516 1127 -638 1381 -755 408 -189 658 -260 964 -272 486
-19 985 153 2035 702 1559 814 2302 1244 3100 1795 1958 1352 3745 2917 5081
4450 1104 1267 1909 2525 2388 3727 l61 153 -1061 2162 c-1185 2415 -1466
2981 -1539 3092 -49 75 -52 78 -143 120 -50 24 -120 64 -155 90 -41 31 -64 42
-67 34 -3 -7 -835 -2279 -1850 -5048 -1015 -2769 -1848 -5041 -1850 -5049 -4
-9 -20 0 -54 32 -26 25 -66 54 -89 66 -62 32 -95 80 -208 311 -104 210 -112
232 -374 1006 -148 435 -319 950 -380 1145 -61 195 -149 469 -195 609 -46 140
-117 361 -159 490 -85 264 -186 485 -276 602 -28 38 -98 109 -156 159 l-104
90 -23 -53 c-160 -360 -1071 -2385 -1076 -2390 -7 -9 -412 -24 -1001 -39 -239
-6 -1252 -14 -2250 -19 -1398 -7 -1926 -13 -2300 -26 -700 -25 -1958 -26
-2228 -1 -411 37 -677 102 -753 183 -38 41 -115 259 -160 454 -30 134 -37 351
-15 454 67 297 305 470 748 540 261 42 778 45 1418 9 285 -16 502 -18 2305
-16 1095 1 2257 5 2584 9 l593 6 50 107 c162 344 359 817 764 1840 699 1764
932 2319 1193 2841 101 203 246 460 260 460 3 0 443 -950 976 -2110 534 -1160
972 -2110 975 -2110 3 0 786 2140 1740 4755 954 2615 1737 4755 1740 4755 3 0
905 -1631 2005 -3625 1100 -1994 2002 -3625 2005 -3625 18 0 214 362 298 550
492 1102 671 2574 532 4370 -82 1059 -300 2324 -590 3429 l-61 234 -173 246
c-301 429 -512 712 -757 1016 -964 1199 -1930 1883 -3154 2233 -557 160 -1135
245 -1855 272 -237 9 -357 10 -650 3z"/>
<path d="M28414 18854 c-191 -137 -312 -258 -416 -414 -48 -73 -173 -320 -353
-697 l-87 -183 55 -157 c459 -1317 1243 -3026 1855 -4043 145 -241 390 -613
443 -674 21 -23 270 218 439 425 383 468 732 1001 1600 2441 147 244 157 257
185 258 306 3 7719 151 7722 154 4 3 -58 1052 -73 1238 l-6 77 -50 11 c-241
51 -807 108 -1408 140 -851 46 -2277 67 -3480 51 -1388 -18 -2371 -48 -3155
-96 -267 -17 -577 -43 -583 -50 -3 -2 -233 -316 -512 -697 -279 -380 -511
-693 -516 -695 -5 -1 -360 666 -788 1482 -428 817 -782 1485 -786 1485 -5 0
-43 -25 -86 -56z"/>
</g>
</svg>
